<?xml version="1.0" standalone="no"?>
<!DOCTYPE svg PUBLIC "-//W3C//DTD SVG 20010904//EN"
 "http://www.w3.org/TR/2001/REC-SVG-20010904/DTD/svg10.dtd">
<svg version="1.0" xmlns="http://www.w3.org/2000/svg"
 width="200.000000pt" height="200.000000pt" viewBox="0 0 200.000000 200.000000"
 preserveAspectRatio="xMidYMid meet">
<metadata>
Created by potrace 1.16, written by Peter Selinger 2001-2019
</metadata>
<g transform="translate(0.000000,200.000000) scale(0.100000,-0.100000)"
fill="#000000" stroke="none">
<path d="M1070 1830 c-8 -15 -21 -20 -52 -20 -55 0 -38 -14 37 -29 81 -17 206
-77 284 -136 76 -58 167 -170 212 -260 l32 -66 22 38 c12 21 18 40 14 43 -3 3
-18 28 -32 55 -40 79 -115 173 -186 232 -70 57 -188 129 -198 120 -3 -3 -12 1
-20 9 -9 8 -22 13 -29 10 -8 -3 -14 -1 -14 5 0 6 -7 9 -15 5 -8 -3 -15 -1 -15
4 0 18 -29 10 -40 -10z"/>
<path d="M1650 1318 c0 -15 -3 -34 -6 -42 -5 -14 -9 -14 -22 -4 -13 11 -14 10
-4 -9 16 -30 -7 -89 -27 -70 -11 10 -12 9 -4 -7 6 -10 8 -27 5 -38 -4 -15 -7
-16 -20 -6 -14 11 -14 10 -5 -6 7 -13 8 -29 2 -44 -10 -25 -2 -45 35 -97 15
-21 21 -38 16 -55 -6 -24 -6 -24 -19 8 -15 37 -87 106 -101 97 -6 -4 -10 -13
-10 -21 0 -17 -12 -18 -27 -3 -8 8 -11 6 -10 -7 2 -13 -5 -19 -20 -19 -39 -1
-33 -11 17 -29 28 -10 50 -22 50 -28 0 -5 4 -7 9 -4 4 3 16 -1 27 -8 16 -12
16 -16 4 -30 -12 -16 -11 -16 14 -5 40 19 54 -1 25 -35 -22 -25 -26 -26 -87
-20 -51 6 -63 4 -57 -5 4 -8 20 -11 36 -9 25 4 29 1 29 -18 0 -13 -7 -24 -17
-27 -17 -4 -17 -5 0 -6 9 0 17 -6 17 -12 0 -21 -21 -49 -38 -49 -13 0 -14 -2
-4 -9 10 -6 6 -14 -17 -33 -16 -14 -28 -28 -25 -31 3 -2 -5 -13 -18 -24 -13
-11 -40 -38 -62 -60 -40 -43 -32 -51 16 -19 15 10 32 15 38 11 5 -3 10 -2 10
4 0 6 14 17 30 26 28 14 30 14 31 -2 0 -15 2 -14 9 3 12 29 30 40 41 23 7 -11
9 -10 9 4 0 10 6 20 14 23 8 3 19 17 25 32 13 35 31 135 24 144 -2 5 0 8 6 8
5 0 11 10 13 21 4 31 36 49 51 29 7 -8 18 -15 25 -16 31 -3 34 -5 29 -25 -4
-16 -3 -18 7 -9 16 12 42 -13 31 -30 -4 -6 -2 -9 4 -8 6 2 22 -15 35 -37 16
-25 25 -33 26 -22 0 9 5 17 12 17 9 0 9 3 1 11 -14 14 -5 51 11 42 6 -4 5 0
-2 9 -8 10 -9 19 -3 22 5 4 14 -2 20 -11 6 -10 11 -14 11 -9 0 6 -12 27 -26
48 -21 30 -33 38 -56 38 -38 0 -100 29 -95 44 3 6 9 10 15 9 6 -2 9 4 6 12 -6
14 40 31 146 53 34 8 38 10 17 11 -16 1 -26 5 -23 9 3 5 -8 6 -25 4 -16 -2
-29 0 -29 5 0 4 -26 8 -57 8 -55 0 -58 1 -61 26 -2 18 3 29 20 37 21 11 22 12
1 7 -21 -6 -21 -3 -22 106 0 65 -4 116 -10 122 -8 8 -11 3 -11 -15z"/>
<path d="M124 998 l1 -147 -23 6 c-22 5 -23 3 -18 -18 41 -147 116 -280 210
-375 99 -98 266 -190 382 -209 29 -5 22 0 -28 18 -185 68 -344 201 -429 360
-20 37 -29 68 -26 83 2 14 -2 31 -9 38 -7 8 -11 15 -9 18 2 2 -5 33 -17 68
-12 40 -23 111 -28 185 l-8 120 2 -147z"/>
</g>
</svg>
